<svg width="50" height="39" viewBox="0 0 50 39" fill="none" xmlns="http://www.w3.org/2000/svg">
<path d="M42.9688 4.50732H7.03125C6.16699 4.50732 5.46875 5.04703 5.46875 5.71505V33.4928C5.46875 34.1609 6.16699 34.7006 7.03125 34.7006H42.9688C43.833 34.7006 44.5312 34.1609 44.5312 33.4928V5.71505C44.5312 5.04703 43.833 4.50732 42.9688 4.50732ZM38.457 13.32H35.3369C32.8906 13.32 32.417 14.2182 32.417 15.5392V18.4491H38.2568L37.4951 23.0045H32.417V34.7006H26.3281V23.0082H21.2354V18.4491H26.3281V15.0901C26.3281 11.1914 29.4092 9.0665 33.9111 9.0665C36.0693 9.0665 37.9199 9.19105 38.4619 9.24766V13.32H38.457Z" fill="white"/>
</svg>
