<svg width="65" height="65" viewBox="0 0 65 65" fill="none" xmlns="http://www.w3.org/2000/svg">
<path d="M32.5001 24.0386C37.1592 24.0386 40.9615 27.8408 40.9615 32.5C40.9615 37.1592 37.1592 40.9614 32.5001 40.9614C27.8409 40.9614 24.0386 37.1592 24.0386 32.5C24.0386 27.8408 27.8409 24.0386 32.5001 24.0386ZM7.12212 32.5C7.12212 28.9961 7.09038 25.5239 7.28716 22.0264C7.48394 17.9639 8.4107 14.3584 11.3814 11.3877C14.3585 8.41064 17.9576 7.49023 22.0201 7.29345C25.524 7.09668 28.9962 7.12841 32.4937 7.12841C35.9976 7.12841 39.4698 7.09668 42.9673 7.29345C47.0298 7.49023 50.6353 8.41699 53.606 11.3877C56.5831 14.3647 57.5035 17.9639 57.7003 22.0264C57.897 25.5303 57.8653 29.0024 57.8653 32.5C57.8653 35.9976 57.897 39.4761 57.7003 42.9736C57.5035 47.0361 56.5767 50.6416 53.606 53.6123C50.629 56.5893 47.0298 57.5098 42.9673 57.7065C39.4634 57.9033 35.9913 57.8716 32.4937 57.8716C28.9898 57.8716 25.5176 57.9033 22.0201 57.7065C17.9576 57.5098 14.3521 56.583 11.3814 53.6123C8.40435 50.6352 7.48394 47.0361 7.28716 42.9736C7.08403 39.4761 7.12212 36.0039 7.12212 32.5ZM32.5001 45.519C39.7047 45.519 45.5191 39.7046 45.5191 32.5C45.5191 25.2954 39.7047 19.481 32.5001 19.481C25.2955 19.481 19.481 25.2954 19.481 32.5C19.481 39.7046 25.2955 45.519 32.5001 45.519ZM18.9478 21.9883C20.6299 21.9883 21.9883 20.6299 21.9883 18.9477C21.9883 17.2656 20.6299 15.9072 18.9478 15.9072C17.2657 15.9072 15.9073 17.2656 15.9073 18.9477C15.9068 19.3472 15.9851 19.7428 16.1377 20.1119C16.2903 20.481 16.5143 20.8164 16.7967 21.0988C17.0792 21.3813 17.4145 21.6052 17.7837 21.7579C18.1528 21.9105 18.5484 21.9888 18.9478 21.9883Z" fill="url(#paint0_linear_73_247)"/>
<defs>
<linearGradient id="paint0_linear_73_247" x1="32.4932" y1="7.12653" x2="32.4932" y2="57.8735" gradientUnits="userSpaceOnUse">
<stop stop-color="#F404F9"/>
<stop offset="1" stop-color="#B100C1"/>
</linearGradient>
</defs>
</svg>
