<svg width="50" height="50" viewBox="0 0 50 50" fill="none" xmlns="http://www.w3.org/2000/svg">
<g clip-path="url(#clip0_73_251)">
<path d="M19.9177 34.2063L33.4706 24.2854L19.9177 14.2479V34.2063ZM25.1 8.13813e-06C28.2373 8.13813e-06 31.2672 0.0597304 34.1897 0.179175C37.1123 0.298619 39.2549 0.424314 40.6177 0.556258L42.6618 0.722925C42.6804 0.722925 42.8373 0.743064 43.1324 0.783341C43.378 0.810425 43.5985 0.852091 43.8162 0.910425L43.778 0.902091C43.9093 0.942369 44.1289 1.00209 44.4368 1.08126C44.7382 1.15417 45.0074 1.26459 45.2618 1.41042L45.2353 1.39792C45.4598 1.52987 45.7216 1.70209 46.0206 1.91459C46.3515 2.15209 46.6368 2.41042 46.9015 2.70001L46.8897 2.68751C47.1882 3.01667 47.4529 3.36042 47.6971 3.73334L47.7015 3.73959C47.8515 3.96251 47.9941 4.20209 48.125 4.45209L48.1353 4.47292C48.4324 5.13542 48.7059 5.90209 48.925 6.70417L48.9471 6.79584C49.3 7.96042 49.5603 9.31042 49.6838 10.7229L49.6897 10.7958C49.8387 12.4889 49.9564 14.2945 50.0427 16.2125C50.1289 18.1306 50.1804 19.6306 50.1971 20.7125V27.6958L50.1985 28.2438C50.1985 32.1042 50.0147 35.9063 49.6588 39.6292L49.6927 39.1958C49.576 40.5871 49.3298 41.9504 48.9603 43.25L48.9868 43.1438C48.765 44.0232 48.4582 44.8547 48.075 45.6146L48.0897 45.5833L47.6985 46.25C47.4531 46.6251 47.1865 46.9714 46.9015 47.2854L46.8868 47.3021C46.6263 47.5892 46.3448 47.8358 46.0471 48.0375L46.0191 48.0542C45.7201 48.2528 45.4583 48.4194 45.2338 48.5542C44.9841 48.697 44.7243 48.8018 44.4588 48.8667L44.4353 48.8708C44.1275 48.95 43.9034 49.0097 43.7632 49.05C43.6231 49.0903 43.4083 49.1299 43.1191 49.1688C42.8299 49.2076 42.676 49.2278 42.6574 49.2292C37.976 49.7458 32.1245 50.0042 25.103 50.0042C21.2373 49.9514 17.8804 49.8653 15.0324 49.7458C12.1843 49.6264 10.3123 49.5271 9.41619 49.4479L8.04266 49.2813L7.03383 49.1146C6.48786 49.0214 5.94659 48.8794 5.41325 48.6896L5.50442 48.7167C4.99485 48.4941 4.50105 48.2046 4.02942 47.8521L4.07648 47.8833C3.48685 47.476 2.95188 46.9261 2.4956 46.2583L2.49413 46.2563C2.34278 46.0313 2.20134 45.7933 2.0706 45.5438L2.06031 45.5229C1.74678 44.8171 1.48231 44.0698 1.2706 43.2917L1.24854 43.2C0.875177 41.9459 0.627196 40.6241 0.511776 39.2729L0.505894 39.2C0.356874 37.507 0.239227 35.7014 0.152953 33.7833C0.0666782 31.8653 0.0152076 30.3653 -0.0014591 29.2833V22.3L-0.00292969 21.7521C-0.00292969 17.8917 0.180894 14.0896 0.536776 10.3667L0.502953 10.8C0.619582 9.40872 0.865843 8.04547 1.23531 6.74584L1.20884 6.85209C1.44707 5.92084 1.75001 5.11459 2.1206 4.38126L2.10589 4.41251L2.49707 3.74584C2.7456 3.36667 3.01031 3.02292 3.29413 2.71042L3.30884 2.69376C3.56178 2.41459 3.8456 2.15834 4.14707 1.93959L4.17795 1.91876C4.47697 1.70765 4.73874 1.53542 4.96325 1.40209C5.21302 1.25925 5.47282 1.15449 5.73825 1.08959L5.76178 1.08542C6.06962 1.00626 6.28923 0.946536 6.4206 0.906258C6.59854 0.856258 6.81913 0.814591 7.04413 0.789591L7.06619 0.787508C7.36521 0.74723 7.52207 0.727091 7.53678 0.727091C12.226 0.24098 18.0819 -0.0020752 25.1044 -0.0020752L25.1 8.13813e-06Z" fill="url(#paint0_linear_73_251)"/>
</g>
<defs>
<linearGradient id="paint0_linear_73_251" x1="25.0978" y1="-0.0020752" x2="25.0978" y2="50.0042" gradientUnits="userSpaceOnUse">
<stop stop-color="#F404F9"/>
<stop offset="1" stop-color="#B100C1"/>
</linearGradient>
<clipPath id="clip0_73_251">
<rect width="50" height="50" fill="white"/>
</clipPath>
</defs>
</svg>
