<svg width="157" height="36" viewBox="0 0 157 36" fill="none" xmlns="http://www.w3.org/2000/svg">
<path d="M7.012 23.724C7.612 23.724 8.152 23.472 8.632 22.968C9.112 22.464 9.508 21.732 9.82 20.772L12.34 9H17.524L13.96 25.704C15.16 25.272 16.096 24.672 16.768 23.904C17.464 23.112 18.04 21.996 18.496 20.556H20.008C19.456 22.38 18.664 23.844 17.632 24.948C16.624 26.052 15.292 26.832 13.636 27.288L13.096 29.88C12.664 31.896 11.908 33.42 10.828 34.452C9.748 35.484 8.344 36 6.616 36C5.392 36 4.408 35.688 3.664 35.064C2.944 34.44 2.584 33.588 2.584 32.508C2.584 31.332 3.064 30.288 4.024 29.376C5.008 28.488 6.484 27.744 8.452 27.144L8.884 25.2C8.284 25.872 7.624 26.376 6.904 26.712C6.208 27.048 5.428 27.216 4.564 27.216C3.364 27.216 2.416 26.844 1.72 26.1C1.048 25.332 0.712 24.264 0.712 22.896C0.712 22.584 0.736 22.236 0.784 21.852C0.832 21.444 0.904 21.012 1 20.556L3.448 9H8.632L6.04 21.24C6.016 21.384 5.992 21.54 5.968 21.708C5.944 21.852 5.932 21.996 5.932 22.14C5.932 22.644 6.016 23.04 6.184 23.328C6.376 23.592 6.652 23.724 7.012 23.724ZM8.092 28.944C6.892 29.4 6.004 29.868 5.428 30.348C4.852 30.852 4.564 31.404 4.564 32.004C4.564 32.316 4.684 32.592 4.924 32.832C5.164 33.072 5.452 33.192 5.788 33.192C6.196 33.192 6.592 32.904 6.976 32.328C7.36 31.752 7.66 30.972 7.876 29.988L8.092 28.944ZM18.0038 21.456C18.0038 20.088 18.2198 18.636 18.6518 17.1C19.1078 15.564 19.7198 14.196 20.4878 12.996C21.3758 11.58 22.4438 10.512 23.6918 9.792C24.9398 9.048 26.3318 8.676 27.8678 8.676C29.4038 8.676 30.5558 9.156 31.3238 10.116C32.0918 11.076 32.4758 12.516 32.4758 14.436C32.5238 14.46 32.5718 14.484 32.6198 14.508C32.6918 14.508 32.7758 14.508 32.8718 14.508C33.6158 14.508 34.5038 14.304 35.5358 13.896C36.5678 13.488 37.5278 12.972 38.4158 12.348L38.7398 13.32C38.0678 14.04 37.1678 14.664 36.0398 15.192C34.9358 15.72 33.7118 16.092 32.3678 16.308C32.0798 19.548 31.1438 22.164 29.5598 24.156C27.9758 26.148 26.0438 27.144 23.7638 27.144C21.8918 27.144 20.4638 26.664 19.4798 25.704C18.4958 24.744 18.0038 23.328 18.0038 21.456ZM28.1558 10.872C27.0038 10.872 25.9118 12.036 24.8798 14.364C23.8718 16.692 23.3678 18.9 23.3678 20.988C23.3678 22.116 23.4878 22.884 23.7278 23.292C23.9918 23.7 24.4838 23.904 25.2038 23.904C26.0918 23.904 26.9318 23.184 27.7238 21.744C28.5398 20.304 29.0918 18.528 29.3798 16.416C29.0438 16.344 28.7918 16.188 28.6238 15.948C28.4798 15.684 28.4078 15.336 28.4078 14.904C28.4078 14.448 28.5038 14.052 28.6958 13.716C28.8878 13.38 29.1638 13.128 29.5238 12.96C29.4758 12.192 29.3438 11.652 29.1278 11.34C28.9358 11.028 28.6118 10.872 28.1558 10.872ZM40.3401 23.724C40.9641 23.724 41.5161 23.46 41.9961 22.932C42.5001 22.38 42.9081 21.588 43.2201 20.556L45.6681 9H50.8521L48.2601 21.24C48.2121 21.456 48.1761 21.66 48.1521 21.852C48.1281 22.02 48.1161 22.2 48.1161 22.392C48.1161 22.872 48.2241 23.22 48.4401 23.436C48.6801 23.628 49.0641 23.724 49.5921 23.724C50.2161 23.724 50.7801 23.448 51.2841 22.896C51.7881 22.344 52.1961 21.564 52.5081 20.556H54.0201C53.2521 22.764 52.2561 24.432 51.0321 25.56C49.8081 26.664 48.3921 27.216 46.7841 27.216C45.7521 27.216 44.9241 26.928 44.3001 26.352C43.6761 25.752 43.3161 24.9 43.2201 23.796C42.5241 24.948 41.7321 25.812 40.8441 26.388C39.9801 26.94 38.9961 27.216 37.8921 27.216C36.6921 27.216 35.7441 26.844 35.0481 26.1C34.3761 25.332 34.0401 24.264 34.0401 22.896C34.0401 22.584 34.0641 22.236 34.1121 21.852C34.1601 21.444 34.2321 21.012 34.3281 20.556L36.7761 9H41.9601L39.3681 21.24C39.3201 21.432 39.2841 21.612 39.2601 21.78C39.2601 21.924 39.2601 22.08 39.2601 22.248C39.2601 22.728 39.3441 23.1 39.5121 23.364C39.7041 23.604 39.9801 23.724 40.3401 23.724ZM53.7639 9H54.9519L56.0319 4.032L61.3599 3.312L60.1359 9H62.2959L62.0079 10.44H59.8479L57.5439 21.24C57.4959 21.456 57.4599 21.66 57.4359 21.852C57.4119 22.02 57.3999 22.2 57.3999 22.392C57.3999 22.872 57.5079 23.22 57.7239 23.436C57.9639 23.628 58.3479 23.724 58.8759 23.724C59.5479 23.724 60.1839 23.436 60.7839 22.86C61.3839 22.26 61.8279 21.492 62.1159 20.556H63.6279C62.8599 22.74 61.8279 24.396 60.5319 25.524C59.2359 26.652 57.7479 27.216 56.0679 27.216C54.8679 27.216 53.9199 26.844 53.2239 26.1C52.5519 25.332 52.2159 24.264 52.2159 22.896C52.2159 22.584 52.2399 22.236 52.2879 21.852C52.3359 21.444 52.4079 21.012 52.5039 20.556L54.6639 10.44H53.4759L53.7639 9ZM71.0957 23.148C71.0957 22.716 71.1437 22.176 71.2397 21.528C71.3597 20.88 71.5877 19.848 71.9237 18.432C72.2597 17.064 72.4757 16.08 72.5717 15.48C72.6677 14.88 72.7157 14.376 72.7157 13.968C72.7157 13.368 72.5957 12.912 72.3557 12.6C72.1397 12.288 71.8157 12.132 71.3837 12.132C70.8077 12.132 70.2437 12.48 69.6917 13.176C69.1637 13.848 68.8157 14.556 68.6477 15.3L66.1637 27H60.9797L66.1997 2.52L71.5277 1.8L69.5837 10.872C70.1837 10.2 70.8317 9.696 71.5277 9.36C72.2237 9.024 72.9797 8.856 73.7957 8.856C75.0677 8.856 76.0517 9.204 76.7477 9.9C77.4437 10.596 77.7917 11.604 77.7917 12.924C77.7917 13.476 77.7197 14.136 77.5757 14.904C77.4557 15.648 77.2037 16.8 76.8197 18.36C76.5077 19.584 76.3037 20.448 76.2077 20.952C76.1117 21.456 76.0637 21.876 76.0637 22.212C76.0637 22.716 76.1837 23.1 76.4237 23.364C76.6637 23.604 77.0237 23.724 77.5037 23.724C78.1037 23.724 78.6197 23.52 79.0517 23.112C79.4837 22.704 79.9757 21.852 80.5277 20.556H82.0397C81.2717 22.788 80.3357 24.456 79.2317 25.56C78.1517 26.664 76.8557 27.216 75.3437 27.216C73.9997 27.216 72.9557 26.856 72.2117 26.136C71.4677 25.392 71.0957 24.396 71.0957 23.148ZM90.9274 20.088C91.6474 20.088 92.2474 19.98 92.7274 19.764C93.2074 19.548 93.6274 19.212 93.9874 18.756L95.5354 11.916L100.179 11.952L97.2274 25.488C96.5314 28.752 95.4634 31.056 94.0234 32.4C92.5834 33.768 90.5794 34.452 88.0114 34.452C86.4994 34.452 85.2874 33.984 84.3754 33.048C83.4634 32.112 83.0074 30.924 83.0074 29.484C83.0074 28.092 83.4154 26.928 84.2314 25.992C85.0474 25.032 86.1034 24.552 87.3994 24.552C88.6954 24.552 89.6074 24.756 90.1354 25.164C90.6634 25.548 90.9274 26.148 90.9274 26.964C90.9274 27.156 90.9034 27.372 90.8554 27.612C90.8314 27.876 90.7834 28.14 90.7114 28.404C90.3034 28.068 89.9434 27.828 89.6314 27.684C89.3194 27.54 88.9594 27.468 88.5514 27.468C87.8074 27.468 87.1954 27.732 86.7154 28.26C86.2594 28.788 86.0314 29.436 86.0314 30.204C86.0314 30.924 86.2354 31.512 86.6434 31.968C87.0514 32.424 87.6034 32.652 88.2994 32.652C89.2834 32.652 90.0394 32.304 90.5674 31.608C91.0954 30.936 91.5394 29.808 91.8994 28.224L93.3394 21.78C92.5954 22.188 91.8034 22.512 90.9634 22.752C90.1234 22.968 89.4514 23.076 88.9474 23.076C86.4034 23.076 84.4714 22.296 83.1514 20.736C81.8554 19.152 81.2074 16.86 81.2074 13.86C81.2074 12.084 81.5074 10.356 82.1074 8.676C82.7314 6.972 83.5954 5.484 84.6994 4.212C85.8754 2.844 87.2434 1.8 88.8034 1.08C90.3874 0.359998 92.1034 -2.14577e-06 93.9514 -2.14577e-06C95.9674 -2.14577e-06 97.5874 0.431998 98.8114 1.296C100.035 2.136 100.647 3.312 100.647 4.824C100.647 5.904 100.431 6.732 99.9994 7.308C99.5674 7.86 98.9434 8.136 98.1274 8.136C97.6234 8.136 97.1434 8.052 96.6874 7.884C96.2554 7.716 95.9074 7.488 95.6434 7.2C96.0514 7.08 96.4114 6.696 96.7234 6.048C97.0594 5.4 97.2274 4.8 97.2274 4.248C97.2274 3.48 97.0114 2.868 96.5794 2.412C96.1474 1.932 95.5354 1.692 94.7434 1.692C93.7114 1.692 92.6674 2.124 91.6114 2.988C90.5794 3.828 89.6554 5.004 88.8394 6.516C88.1674 7.692 87.6514 8.952 87.2914 10.296C86.9314 11.616 86.7514 12.9 86.7514 14.148C86.7514 15.996 87.1114 17.448 87.8314 18.504C88.5754 19.56 89.6074 20.088 90.9274 20.088ZM101.048 22.896C101.048 22.584 101.072 22.236 101.12 21.852C101.168 21.444 101.24 21.012 101.336 20.556L105.188 2.52L110.516 1.8L106.376 21.24C106.328 21.456 106.292 21.66 106.268 21.852C106.244 22.02 106.232 22.2 106.232 22.392C106.232 22.872 106.34 23.22 106.556 23.436C106.796 23.628 107.18 23.724 107.708 23.724C108.38 23.724 109.016 23.436 109.616 22.86C110.216 22.26 110.66 21.492 110.948 20.556H112.46C111.692 22.74 110.66 24.396 109.364 25.524C108.068 26.652 106.58 27.216 104.9 27.216C103.7 27.216 102.752 26.844 102.056 26.1C101.384 25.332 101.048 24.264 101.048 22.896ZM121.72 10.656V10.908L122.116 9H127.3L124.708 21.24C124.66 21.456 124.624 21.66 124.6 21.852C124.576 22.02 124.564 22.2 124.564 22.392C124.564 22.92 124.684 23.316 124.924 23.58C125.164 23.82 125.536 23.94 126.04 23.94C126.664 23.94 127.228 23.652 127.732 23.076C128.236 22.476 128.644 21.636 128.956 20.556H130.468C129.7 22.764 128.704 24.432 127.48 25.56C126.256 26.664 124.84 27.216 123.232 27.216C122.2 27.216 121.372 26.928 120.748 26.352C120.148 25.776 119.8 24.96 119.704 23.904C118.96 25.008 118.132 25.836 117.22 26.388C116.332 26.94 115.372 27.216 114.34 27.216C112.852 27.216 111.676 26.712 110.812 25.704C109.972 24.696 109.552 23.268 109.552 21.42C109.552 20.076 109.756 18.672 110.164 17.208C110.572 15.744 111.136 14.412 111.856 13.212C112.744 11.796 113.776 10.716 114.952 9.972C116.128 9.204 117.412 8.82 118.804 8.82C119.74 8.82 120.46 8.988 120.964 9.324C121.468 9.636 121.72 10.08 121.72 10.656ZM121.396 12.42C121.396 12.06 121.264 11.748 121 11.484C120.736 11.196 120.376 11.052 119.92 11.052C118.6 11.052 117.424 12.156 116.392 14.364C115.384 16.572 114.88 18.756 114.88 20.916C114.88 21.852 115.012 22.56 115.276 23.04C115.54 23.496 116.008 23.724 116.68 23.724C117.304 23.724 117.904 23.424 118.48 22.824C119.08 22.224 119.476 21.468 119.668 20.556L121.396 12.42ZM140.202 20.988C140.202 21.276 140.19 21.528 140.166 21.744C140.142 21.96 140.106 22.164 140.058 22.356C140.538 22.068 141.006 21.768 141.462 21.456C141.918 21.144 142.314 20.844 142.65 20.556H144.162C143.418 21.42 142.59 22.224 141.678 22.968C140.79 23.688 139.782 24.384 138.654 25.056C138.006 25.752 137.178 26.292 136.17 26.676C135.162 27.036 134.106 27.216 133.002 27.216C131.394 27.216 130.11 26.784 129.15 25.92C128.214 25.032 127.746 23.928 127.746 22.608C127.746 21.864 127.926 21.192 128.286 20.592C128.646 19.968 129.102 19.524 129.654 19.26C130.47 17.796 131.226 16.236 131.922 14.58C132.642 12.9 133.362 10.908 134.082 8.604L139.41 7.884C139.482 9.684 139.566 11.328 139.662 12.816C139.758 14.304 139.878 15.924 140.022 17.676C140.094 18.684 140.142 19.392 140.166 19.8C140.19 20.208 140.202 20.604 140.202 20.988ZM134.298 12.492C133.986 13.476 133.602 14.508 133.146 15.588C132.714 16.644 132.126 17.88 131.382 19.296C131.646 19.416 131.85 19.584 131.994 19.8C132.138 20.016 132.21 20.268 132.21 20.556C132.21 21.012 132.054 21.42 131.742 21.78C131.43 22.14 131.058 22.32 130.626 22.32C130.386 22.32 130.182 22.284 130.014 22.212C129.846 22.116 129.726 21.996 129.654 21.852C129.654 22.74 129.822 23.388 130.158 23.796C130.518 24.18 131.082 24.372 131.85 24.372C132.834 24.372 133.602 24.084 134.154 23.508C134.706 22.932 134.982 22.104 134.982 21.024C134.982 20.688 134.97 20.352 134.946 20.016C134.922 19.656 134.874 19.068 134.802 18.252C134.682 17.124 134.586 16.128 134.514 15.264C134.442 14.4 134.37 13.476 134.298 12.492ZM152.085 20.988C152.085 21.276 152.073 21.528 152.049 21.744C152.025 21.96 151.989 22.164 151.941 22.356C152.421 22.068 152.889 21.768 153.345 21.456C153.801 21.144 154.197 20.844 154.533 20.556H156.045C155.301 21.42 154.473 22.224 153.561 22.968C152.673 23.688 151.665 24.384 150.537 25.056C149.889 25.752 149.061 26.292 148.053 26.676C147.045 27.036 145.989 27.216 144.885 27.216C143.277 27.216 141.993 26.784 141.033 25.92C140.097 25.032 139.629 23.928 139.629 22.608C139.629 21.864 139.809 21.192 140.169 20.592C140.529 19.968 140.985 19.524 141.537 19.26C142.353 17.796 143.109 16.236 143.805 14.58C144.525 12.9 145.245 10.908 145.965 8.604L151.293 7.884C151.365 9.684 151.449 11.328 151.545 12.816C151.641 14.304 151.761 15.924 151.905 17.676C151.977 18.684 152.025 19.392 152.049 19.8C152.073 20.208 152.085 20.604 152.085 20.988ZM146.181 12.492C145.869 13.476 145.485 14.508 145.029 15.588C144.597 16.644 144.009 17.88 143.265 19.296C143.529 19.416 143.733 19.584 143.877 19.8C144.021 20.016 144.093 20.268 144.093 20.556C144.093 21.012 143.937 21.42 143.625 21.78C143.313 22.14 142.941 22.32 142.509 22.32C142.269 22.32 142.065 22.284 141.897 22.212C141.729 22.116 141.609 21.996 141.537 21.852C141.537 22.74 141.705 23.388 142.041 23.796C142.401 24.18 142.965 24.372 143.733 24.372C144.717 24.372 145.485 24.084 146.037 23.508C146.589 22.932 146.865 22.104 146.865 21.024C146.865 20.688 146.853 20.352 146.829 20.016C146.805 19.656 146.757 19.068 146.685 18.252C146.565 17.124 146.469 16.128 146.397 15.264C146.325 14.4 146.253 13.476 146.181 12.492Z" fill="#FBFBFB"/>
</svg>
