<svg width="58" height="47" viewBox="0 0 58 47" fill="none" xmlns="http://www.w3.org/2000/svg">
<g clip-path="url(#clip0_65_225)">
<path d="M31.9556 26.0609H30.5087V18.1485C30.5087 17.7511 30.1849 17.4292 29.7852 17.4292H28.5572C28.1285 17.4292 27.7099 17.5551 27.3536 17.7916L25.9673 18.7105C25.8882 18.7628 25.8203 18.8302 25.7674 18.9086C25.7145 18.9871 25.6777 19.0751 25.6591 19.1677C25.6404 19.2603 25.6403 19.3557 25.6587 19.4483C25.6772 19.5409 25.7138 19.6291 25.7665 19.7076L26.5695 20.9044C26.6222 20.983 26.6899 21.0505 26.7688 21.1031C26.8477 21.1557 26.9362 21.1923 27.0294 21.2108C27.1225 21.2294 27.2184 21.2295 27.3116 21.2111C27.4048 21.1928 27.4934 21.1564 27.5724 21.104L27.6149 21.0761V26.0609H26.168C25.7683 26.0609 25.4446 26.3828 25.4446 26.7803V28.2189C25.4446 28.6163 25.7683 28.9382 26.168 28.9382H31.9556C32.3553 28.9382 32.679 28.6163 32.679 28.2189V26.7803C32.679 26.3828 32.3553 26.0609 31.9556 26.0609ZM55.1058 5.92026H3.0178C1.41989 5.92026 0.124023 7.20872 0.124023 8.7975V37.5699C0.124023 39.1587 1.41989 40.4472 3.0178 40.4472H55.1058C56.7037 40.4472 57.9996 39.1587 57.9996 37.5699V8.7975C57.9996 7.20872 56.7037 5.92026 55.1058 5.92026ZM4.46469 36.1313V30.3768C7.66141 30.3768 10.2522 32.9528 10.2522 36.1313H4.46469ZM4.46469 15.9906V10.2361H10.2522C10.2522 13.4146 7.66141 15.9906 4.46469 15.9906ZM29.0618 33.254C24.2672 33.254 20.3805 28.7449 20.3805 23.1837C20.3805 17.6216 24.2672 13.1134 29.0618 13.1134C33.8564 13.1134 37.7431 17.6216 37.7431 23.1837C37.7431 28.7467 33.8546 33.254 29.0618 33.254ZM53.6589 36.1313H47.8713C47.8713 32.9528 50.4622 30.3768 53.6589 30.3768V36.1313ZM53.6589 15.9906C50.4622 15.9906 47.8713 13.4146 47.8713 10.2361H53.6589V15.9906Z" fill="#F404F9"/>
</g>
<defs>
<clipPath id="clip0_65_225">
<rect width="57.8755" height="46.0359" fill="white" transform="translate(0.124512 0.16571)"/>
</clipPath>
</defs>
</svg>
