<svg width="30" height="30" viewBox="0 0 30 30" fill="none" xmlns="http://www.w3.org/2000/svg">
<g clip-path="url(#clip0_58_167)">
<path d="M29.9999 0C26.966 0.208594 5.65073 2.23828 4.16069 16.8521C3.97964 18.4143 3.8771 19.9834 3.80972 21.5537L14.2904 11.0836C14.6566 10.7174 15.2513 10.7174 15.6175 11.0836C15.9837 11.4498 15.9837 12.0434 15.6175 12.4096L0.412451 27.5994C-0.137158 28.1484 -0.137158 29.0391 0.412451 29.5881C0.96206 30.1371 1.85327 30.1371 2.40347 29.5881L5.75093 26.2441C8.21714 26.2359 10.6816 26.0959 13.1314 25.8129C16.265 25.4941 18.8162 24.2619 20.8998 22.5H14.9847L23.5857 19.6359C24.2449 18.7635 24.8378 17.8365 25.3699 16.875H20.6156L26.8581 13.7572C29.3138 7.78476 29.8939 1.53867 29.9999 0Z" fill="#F404F9"/>
</g>
<defs>
<clipPath id="clip0_58_167">
<rect width="30" height="30" fill="white"/>
</clipPath>
</defs>
</svg>
