<svg width="40" height="31" viewBox="0 0 40 31" fill="none" xmlns="http://www.w3.org/2000/svg">
<path d="M19.5132 10.0555C15.9292 10.0555 13.0044 12.3162 13.0044 15.0864C13.0044 17.8566 15.9292 20.1174 19.5132 20.1174C23.0972 20.1174 26.022 17.8566 26.022 15.0864C26.022 12.3162 23.0972 10.0555 19.5132 10.0555ZM39.0347 15.0864C39.0347 13.0031 39.0591 10.9386 38.9077 8.85906C38.7563 6.4436 38.0434 4.29988 35.7583 2.53358C33.4683 0.763501 30.6997 0.216249 27.5747 0.0992505C24.8794 -0.0177482 22.2085 0.0011226 19.5181 0.0011226C16.8227 0.0011226 14.1518 -0.0177482 11.4614 0.0992505C8.33641 0.216249 5.56298 0.767276 3.27782 2.53358C0.98778 4.30366 0.279773 6.4436 0.128405 8.85906C-0.0229618 10.9424 0.00145236 13.0069 0.00145236 15.0864C0.00145236 17.166 -0.0229618 19.2342 0.128405 21.3138C0.279773 23.7292 0.992663 25.8729 3.27782 27.6393C5.56786 29.4093 8.33641 29.9566 11.4614 30.0736C14.1567 30.1906 16.8276 30.1717 19.5181 30.1717C22.2134 30.1717 24.8843 30.1906 27.5747 30.0736C30.6997 29.9566 33.4731 29.4056 35.7583 27.6393C38.0483 25.8692 38.7563 23.7292 38.9077 21.3138C39.064 19.2342 39.0347 17.1698 39.0347 15.0864ZM19.5132 22.8272C13.9712 22.8272 9.49852 19.3701 9.49852 15.0864C9.49852 10.8028 13.9712 7.34563 19.5132 7.34563C25.0552 7.34563 29.5278 10.8028 29.5278 15.0864C29.5278 19.3701 25.0552 22.8272 19.5132 22.8272ZM29.938 8.83642C28.644 8.83642 27.5991 8.02875 27.5991 7.0286C27.5991 6.02845 28.644 5.22078 29.938 5.22078C31.2319 5.22078 32.2768 6.02845 32.2768 7.0286C32.2772 7.26609 32.217 7.5013 32.0996 7.72077C31.9822 7.94024 31.8099 8.13965 31.5927 8.30758C31.3754 8.47551 31.1174 8.60867 30.8335 8.69941C30.5495 8.79016 30.2452 8.83671 29.938 8.83642Z" fill="white"/>
</svg>
