<svg width="50" height="31" viewBox="0 0 50 31" fill="none" xmlns="http://www.w3.org/2000/svg">
<path d="M25.1594 0.388428H25.4375C28.0063 0.396436 41.0219 0.476514 44.5313 1.28264C45.5922 1.52866 46.5589 2.0082 47.3349 2.67335C48.1109 3.3385 48.6689 4.16595 48.9531 5.07301C49.2688 6.08733 49.4906 7.42998 49.6406 8.81533L49.6719 9.09294L49.7406 9.78695L49.7656 10.0646C49.9688 12.5043 49.9938 14.7892 49.9969 15.2883V15.4885C49.9938 16.0064 49.9656 18.4461 49.7406 20.9872L49.7156 21.2675L49.6875 21.5451C49.5313 23.0719 49.3 24.5881 48.9531 25.7038C48.6697 26.6113 48.112 27.4391 47.3359 28.1044C46.5598 28.7696 45.5926 29.2489 44.5313 29.4942C40.9063 30.327 27.1282 30.3858 25.2188 30.3884H24.775C23.8094 30.3884 19.8157 30.3724 15.6282 30.2496L15.0969 30.2336L14.825 30.2229L14.2907 30.2042L13.7563 30.1856C10.2876 30.0548 6.98443 29.8439 5.46256 29.4916C4.40159 29.2465 3.43464 28.7676 2.65857 28.1028C1.88251 27.4381 1.32458 26.6108 1.04069 25.7038C0.69381 24.5908 0.462561 23.0719 0.306311 21.5451L0.281311 21.2648L0.256311 20.9872C0.102085 19.1785 0.0166231 17.366 6.10352e-05 15.5526L6.10352e-05 15.2243C0.00631103 14.6504 0.031311 12.6671 0.200061 10.4783L0.221936 10.2034L0.231311 10.0646L0.256311 9.78695L0.325061 9.09294L0.356311 8.81533C0.506311 7.42998 0.728185 6.08466 1.04381 5.07301C1.32723 4.16558 1.88494 3.33774 2.66104 2.67248C3.43713 2.00722 4.40434 1.52792 5.46568 1.28264C6.98755 0.93563 10.2907 0.722087 13.7594 0.588623L14.2907 0.569938L14.8282 0.553923L15.0969 0.545915L15.6313 0.527231C18.6054 0.445483 21.5807 0.4001 24.5563 0.391097H25.1594V0.388428ZM20 8.95681V21.8174L32.9907 15.3898L20 8.95681Z" fill="white"/>
</svg>
