<svg width="36" height="36" viewBox="0 0 36 36" fill="none" xmlns="http://www.w3.org/2000/svg">
<path d="M32.3301 5.99997C32.1938 5.98593 32.0564 5.98593 31.9201 5.99997H3.92014C3.74068 6.00274 3.56241 6.02965 3.39014 6.07997L17.8401 20.47L32.3301 5.99997Z" fill="#F404F9"/>
<path d="M33.8102 7.39001L19.2502 21.89C18.8755 22.2625 18.3685 22.4716 17.8402 22.4716C17.3118 22.4716 16.8049 22.2625 16.4302 21.89L2.00018 7.50001C1.95582 7.66306 1.93229 7.83106 1.93018 8.00001V28C1.93018 28.5304 2.14089 29.0392 2.51596 29.4142C2.89103 29.7893 3.39974 30 3.93018 30H31.9302C32.4606 30 32.9693 29.7893 33.3444 29.4142C33.7195 29.0392 33.9302 28.5304 33.9302 28V8.00001C33.9222 7.79167 33.8817 7.58585 33.8102 7.39001ZM5.30018 28H3.91018V26.57L11.1802 19.36L12.5902 20.77L5.30018 28ZM31.9102 28H30.5102L23.2202 20.77L24.6302 19.36L31.9002 26.57L31.9102 28Z" fill="#F404F9"/>
</svg>
