<svg width="40" height="40" viewBox="0 0 40 40" fill="none" xmlns="http://www.w3.org/2000/svg">
<path d="M25.2866 11.6667L14.31 22.6433C13.9916 22.9508 13.7376 23.3186 13.5629 23.7253C13.3882 24.132 13.2963 24.5694 13.2924 25.012C13.2886 25.4546 13.3729 25.8935 13.5405 26.3032C13.7081 26.7128 13.9557 27.085 14.2686 27.398C14.5816 27.7109 14.9538 27.9585 15.3634 28.1261C15.7731 28.2937 16.212 28.378 16.6546 28.3742C17.0972 28.3703 17.5346 28.2784 17.9413 28.1037C18.348 27.929 18.7158 27.675 19.0233 27.3567L29.7133 16.38C30.9277 15.1226 31.5996 13.4386 31.5844 11.6906C31.5693 9.94267 30.8681 8.27058 29.6321 7.03453C28.396 5.79848 26.7239 5.09735 24.976 5.08216C23.228 5.06697 21.544 5.73893 20.2866 6.95332L9.59495 17.9283C7.71943 19.8038 6.66577 22.3476 6.66577 25C6.66577 27.6524 7.71943 30.1961 9.59495 32.0717C11.4705 33.9472 14.0142 35.0008 16.6666 35.0008C19.319 35.0008 21.8628 33.9472 23.7383 32.0717L34.1666 21.6667" stroke="#F404F9" stroke-width="2" stroke-linecap="round" stroke-linejoin="round"/>
</svg>
