<svg width="40" height="40" viewBox="0 0 40 40" fill="none" xmlns="http://www.w3.org/2000/svg">
<g clip-path="url(#clip0_58_171)">
<path d="M38.6593 13.5937H37.1548C37.1334 13.5937 37.1123 13.5848 37.0911 13.5858C36.8288 13.3603 36.5153 13.1836 36.1641 13.0903C34.7248 12.7078 32.5268 12.2609 30.0811 12.2609C27.6354 12.2609 25.4373 12.7037 23.998 13.0862C23.4674 13.227 23.0032 13.5498 22.6864 13.9982C21.85 13.4695 20.8659 13.1755 19.8264 13.1755C18.8557 13.1755 17.9333 13.4313 17.1344 13.8956C16.8206 13.4991 16.3869 13.2147 15.8982 13.0849C14.4588 12.7024 12.2609 12.2583 9.81516 12.2583C7.36945 12.2583 5.17141 12.7135 3.73211 13.0959C3.3892 13.1863 3.0727 13.3569 2.80875 13.5937H1.375C0.72375 13.5937 0.234375 14.0995 0.234375 14.7508L0.234375 16.0652C0.234375 16.7165 0.72375 17.2656 1.375 17.2656H1.95312V19.5873C1.95312 23.9094 5.47492 27.4132 9.79703 27.4132H9.81367C14.1359 27.4132 17.6562 23.9094 17.6562 19.5873V16.5962C18.2031 15.9757 18.984 15.6103 19.8392 15.6103C20.8322 15.6103 21.7187 16.1025 22.2656 16.9155V19.5872C22.2656 23.9094 25.7641 27.4131 30.0863 27.4131H30.0755C34.3977 27.4132 37.8906 23.9094 37.8906 19.5873V17.2656H38.6593C39.3105 17.2656 39.8437 16.7165 39.8437 16.0652V14.7508C39.8437 14.0995 39.3105 13.5937 38.6593 13.5937Z" fill="#F404F9"/>
<path d="M3.66834 19.0306C3.66834 19.0306 3.65303 19.0082 3.6278 18.9661C3.59158 18.9061 3.55859 18.8442 3.52897 18.7806C3.45108 18.6186 3.3567 18.3851 3.28639 18.0924C3.24792 17.9343 3.22015 17.7738 3.20326 17.612C3.18381 17.4391 3.17803 17.2528 3.18373 17.0585C3.19209 16.8634 3.21342 16.6596 3.25576 16.4511C3.29944 16.2424 3.35865 16.0295 3.44287 15.8183C3.52905 15.6077 3.63295 15.3992 3.76342 15.2036C3.89498 15.0086 4.04405 14.8258 4.21498 14.6696C4.38397 14.5131 4.56623 14.3802 4.75241 14.2806C4.79905 14.2558 4.84412 14.2308 4.89014 14.2091C4.93717 14.1889 4.9828 14.1688 5.0285 14.151C5.11826 14.1126 5.20944 14.0872 5.29553 14.0637C5.46881 14.0195 5.62842 13.9969 5.7692 13.9934C5.9092 13.9849 6.03084 14 6.12858 14.011C6.22655 14.0249 6.30272 14.0463 6.35397 14.0599C6.38035 14.0671 6.40648 14.0752 6.43233 14.0841C6.48847 14.1042 6.53893 14.1376 6.57947 14.1814C6.62 14.2251 6.64941 14.278 6.66522 14.3355C6.68103 14.3931 6.68278 14.4535 6.67031 14.5119C6.65784 14.5702 6.63152 14.6247 6.59358 14.6707L6.56803 14.7013L6.52155 14.7572C6.49178 14.793 6.44709 14.8403 6.39491 14.8991C6.34483 14.9623 6.28131 15.0257 6.22147 15.1062C6.19131 15.1463 6.15678 15.1809 6.12772 15.2263C6.09811 15.2704 6.06272 15.3069 6.0353 15.3552C6.00639 15.4011 5.97405 15.4425 5.94741 15.4909C5.93373 15.5145 5.91889 15.5366 5.90459 15.5592L5.86506 15.6309C5.811 15.7244 5.76342 15.8233 5.71608 15.9237C5.66748 16.0226 5.62584 16.1318 5.57827 16.2404C5.53209 16.3506 5.48819 16.4699 5.44202 16.5922C5.34998 16.8388 5.26061 17.1116 5.1642 17.3851C5.11803 17.5228 5.06795 17.6587 5.01975 17.7927C4.97238 17.922 4.92274 18.0504 4.87084 18.178C4.82424 18.2924 4.7753 18.4058 4.72405 18.5182C4.676 18.6211 4.63147 18.7134 4.59061 18.7889C4.55861 18.8493 4.52506 18.9089 4.48998 18.9676C4.46459 19.0095 4.4492 19.032 4.4492 19.032C4.37814 19.1353 4.26893 19.2062 4.1456 19.2291C4.02226 19.2519 3.89491 19.2248 3.79155 19.1538C3.74322 19.1207 3.70144 19.0789 3.66834 19.0306ZM25.2817 19.1541C25.3851 19.2251 25.5124 19.2522 25.6358 19.2294C25.7591 19.2065 25.8683 19.1356 25.9394 19.0323C25.9394 19.0323 25.9548 19.0099 25.9802 18.9679C26.0054 18.9255 26.041 18.8643 26.0808 18.7892C26.1216 18.7138 26.1662 18.6214 26.2142 18.5185C26.2655 18.4061 26.3144 18.2927 26.361 18.1783C26.4129 18.0507 26.4626 17.9223 26.5099 17.793C26.5581 17.6591 26.6081 17.5232 26.6544 17.3854C26.7508 17.112 26.8402 16.8391 26.9322 16.5925C26.9784 16.4702 27.0223 16.3509 27.0684 16.2407C27.116 16.132 27.1576 16.0228 27.2062 15.924C27.2537 15.8236 27.3012 15.7247 27.3552 15.6313L27.3948 15.5595C27.4091 15.5369 27.4239 15.5149 27.4376 15.4912C27.4642 15.4428 27.4966 15.4014 27.5255 15.3555C27.5529 15.3071 27.5884 15.2707 27.6179 15.2266C27.6469 15.1813 27.6815 15.1465 27.7116 15.1065C27.7716 15.026 27.835 14.9626 27.8851 14.8995C27.9373 14.8406 27.9819 14.7933 28.0117 14.7575L28.0582 14.7016L28.0837 14.671C28.1217 14.625 28.148 14.5705 28.1605 14.5122C28.1729 14.4538 28.1712 14.3934 28.1554 14.3358C28.1396 14.2783 28.1102 14.2255 28.0696 14.1817C28.0291 14.1379 27.9786 14.1046 27.9225 14.0844C27.9225 14.0844 27.8955 14.0746 27.8441 14.0602C27.7929 14.0466 27.7168 14.0252 27.6188 14.0113C27.5209 14.0003 27.3993 13.9852 27.2594 13.9937C27.1186 13.9972 26.959 14.0198 26.7857 14.064C26.6996 14.0875 26.6084 14.1129 26.5187 14.1513C26.473 14.1691 26.4273 14.1892 26.3803 14.2095C26.3343 14.2311 26.2893 14.2561 26.2426 14.2809C26.0564 14.3804 25.8741 14.5134 25.7052 14.6699C25.5342 14.8261 25.3852 15.0089 25.2536 15.2039C25.1232 15.3995 25.0192 15.608 24.933 15.8186C24.8488 16.0298 24.7897 16.2427 24.7459 16.4514C24.706 16.6517 24.6819 16.8548 24.6739 17.0588C24.6681 17.2531 24.674 17.4394 24.6934 17.6123C24.7103 17.7741 24.7381 17.9346 24.7766 18.0927C24.8469 18.3854 24.9412 18.6189 25.0191 18.7809C25.0488 18.8445 25.0818 18.9064 25.118 18.9664C25.1432 19.0084 25.1585 19.0309 25.1585 19.0309C25.1919 19.079 25.2336 19.1207 25.2817 19.1541Z" fill="white"/>
</g>
<defs>
<clipPath id="clip0_58_171">
<rect width="40" height="40" fill="white"/>
</clipPath>
</defs>
</svg>
