<svg width="50" height="50" viewBox="0 0 50 50" fill="none" xmlns="http://www.w3.org/2000/svg">
<path d="M3.01706 18.8508L7.86619 23.2863C8.29723 23.7567 8.8001 23.992 9.37481 23.992C10.0214 23.992 10.5602 23.7567 10.9912 23.2863C12.1406 22.2782 12.1406 21.3038 10.9912 20.3629L6.24981 15.8266C5.31591 14.953 4.84895 13.9449 4.84895 12.8024C4.84895 11.66 5.31591 10.6519 6.24981 9.77824L9.37481 6.75405C10.3806 5.88039 11.4761 5.44356 12.6615 5.44356C13.8468 5.44356 14.9064 5.88039 15.8403 6.75405L20.905 11.2903C21.9826 12.2984 23.0602 12.2984 24.1377 11.2903C25.2153 10.2823 25.2153 9.27421 24.1377 8.26615L19.2886 3.52824C17.4926 1.84813 15.3375 1.00808 12.8231 1.00808C10.3087 1.00808 8.11763 1.84813 6.24981 3.52824L3.01706 6.75405C1.14924 8.50136 0.215332 10.5175 0.215332 12.8024C0.215332 15.0874 1.14924 17.1035 3.01706 18.8508ZM46.0127 41.6331C47.8087 39.953 48.7067 37.9032 48.7067 35.4839C48.7067 33.0645 47.8087 31.0148 46.0127 29.3347L41.1636 24.7984C40.086 23.9247 39.0084 23.9247 37.9308 24.7984C36.7814 25.8737 36.7814 26.8817 37.9308 27.8226L42.78 32.3589C43.7139 33.367 44.1808 34.375 44.1808 35.3831C44.1808 36.3911 43.7139 37.3992 42.78 38.4073L39.5472 41.4315C38.6133 42.3051 37.4998 42.742 36.2067 42.742C34.9136 42.742 33.8719 42.3051 33.0817 41.4315L28.0171 37.0968C27.0113 36.0215 25.9337 36.0215 24.7843 37.0968C23.8504 38.1049 23.8504 39.1129 24.7843 40.121L29.6334 44.6573C31.4294 46.3374 33.5846 47.1774 36.099 47.1774C38.6133 47.1774 40.7685 46.3374 42.5645 44.6573L46.0127 41.6331ZM31.6808 14.9194C32.1837 15.3898 32.7225 15.625 33.2972 15.625C33.9438 15.625 34.4826 15.3898 34.9136 14.9194L44.1808 6.35082C45.1148 5.34276 45.1148 4.33469 44.1808 3.32663C43.0314 2.38577 41.9538 2.38577 40.9481 3.32663L31.6808 11.8952C30.6751 12.9704 30.6751 13.9785 31.6808 14.9194ZM5.71102 41.4315C6.35757 41.4315 6.89637 41.1963 7.3274 40.7258L16.5946 32.1573C17.5286 31.1492 17.5286 30.1411 16.5946 29.1331C15.4452 28.1922 14.3676 28.1922 13.3619 29.1331L4.09464 37.7016C3.0889 38.7769 3.0889 39.785 4.09464 40.7258C4.59752 41.1963 5.13631 41.4315 5.71102 41.4315ZM16.5946 45.4637C16.7383 45.5981 16.9538 45.6653 17.2412 45.6653C18.3906 45.6653 19.0731 45.1613 19.2886 44.1532L21.6593 37.7016C21.8748 37.2312 21.8389 36.7104 21.5515 36.1391C21.2642 35.5679 20.8331 35.1815 20.2584 34.9799C19.6837 34.711 19.091 34.711 18.4804 34.9799C17.8698 35.2487 17.4567 35.6519 17.2412 36.1895L14.9783 42.6411C14.8346 43.3132 14.9244 43.9348 15.2477 44.5061C15.5709 45.0773 16.0199 45.3965 16.5946 45.4637ZM49.2455 20.5645C49.461 20.0269 49.4251 19.4725 49.1377 18.9012C48.8504 18.33 48.4194 17.9436 47.8446 17.742L40.9481 15.625C40.3734 15.3562 39.7807 15.3562 39.1701 15.625C38.5594 15.8938 38.1464 16.2971 37.9308 16.8347C37.7153 17.3723 37.7513 17.9268 38.0386 18.498C38.326 19.0692 38.757 19.4557 39.3317 19.6573L46.2283 21.875C46.3001 21.875 46.4079 21.9086 46.5515 21.9758C46.6952 22.043 46.803 22.0766 46.8748 22.0766C48.0242 22.0766 48.8145 21.5726 49.2455 20.5645ZM28.7714 11.2903C29.0587 11.2903 29.2742 11.2231 29.4179 11.0887C30.7829 10.6183 31.2498 9.67744 30.8188 8.26615L28.5558 1.81453C27.9093 0.53765 26.9035 0.100822 25.5386 0.504048C24.1737 1.10889 23.7067 2.04975 24.1377 3.32663L26.4007 9.77824C26.9754 10.7863 27.7656 11.2903 28.7714 11.2903ZM10.9912 28.3266C12.3561 27.7218 12.8231 26.7809 12.3921 25.504C11.8892 24.2272 10.8834 23.7903 9.37481 24.1936L2.47826 26.3105C1.11332 26.9825 0.682286 27.9234 1.18516 29.1331C1.68803 30.1411 2.44234 30.6452 3.44809 30.6452C3.73545 30.6452 3.95096 30.578 4.09464 30.4436L10.9912 28.3266Z" fill="#F404F9"/>
</svg>
