<svg width="64" height="46" viewBox="0 0 64 46" fill="none" xmlns="http://www.w3.org/2000/svg">
<path d="M31.8441 4.44054C17.5776 4.44054 5.9707 12.7394 5.9707 22.9398C5.9707 33.1402 17.5776 41.439 31.8441 41.439C46.1105 41.439 57.7174 33.1402 57.7174 22.9398C57.7174 12.7394 46.1105 4.44054 31.8441 4.44054ZM46.771 21.4074H35.7002L40.2877 18.1273L39.5912 17.5483C38.3452 16.6235 36.798 15.9338 35.0881 15.5409C33.3782 15.1481 31.5588 15.0643 29.7925 15.2971C28.0262 15.5299 26.3681 16.072 24.9665 16.875C23.5649 17.6779 22.4634 18.7167 21.7605 19.8984C21.0577 21.0801 20.7753 22.368 20.9387 23.6468C21.1021 24.9256 21.7062 26.1556 22.6969 27.2267C23.6876 28.2978 25.0341 29.1767 26.616 29.7847C28.1979 30.3928 29.9659 30.7111 31.762 30.7113C34.0097 30.7098 36.2017 30.211 38.0373 29.2835C39.8729 28.3559 41.2621 27.045 42.0143 25.5306L42.6823 24.1849L46.4352 25.1339L45.7759 26.4795C44.8687 28.3151 43.2733 29.937 41.164 31.1681C39.0548 32.3991 36.5127 33.1919 33.8158 33.4598C31.1189 33.7277 28.371 33.4604 25.8722 32.687C23.3734 31.9137 21.2201 30.6641 19.6475 29.0749C18.0749 27.4856 17.1436 25.6179 16.9553 23.6758C16.7671 21.7337 17.3292 19.7919 18.5801 18.0628C19.831 16.3336 21.7227 14.8836 24.0483 13.8712C26.374 12.8588 29.0442 12.323 31.7669 12.3223C33.7764 12.3168 35.7662 12.6055 37.6137 13.1707C39.4612 13.7359 41.1273 14.5656 42.5094 15.6086L42.579 15.6637L43.1152 16.1084L46.771 13.4954V21.4074Z" fill="#F404F9"/>
</svg>
