<svg width="28" height="29" viewBox="0 0 28 29" fill="none" xmlns="http://www.w3.org/2000/svg">
<path d="M13.232 28.1691C13.673 28.3917 14.2265 28.3903 14.6675 28.1677C26.6855 22.0653 27.539 10.1426 27.5285 6.75248C27.5274 6.48001 27.4422 6.21377 27.2834 5.98636C27.1246 5.75896 26.8991 5.58026 26.6345 5.47216L14.5595 0.416101C14.3673 0.336034 14.1596 0.294801 13.9496 0.295045C13.7396 0.295289 13.532 0.337005 13.34 0.417518L1.34901 5.47357C1.08831 5.58174 0.865992 5.75846 0.708553 5.98269C0.551114 6.20692 0.465188 6.46921 0.461012 6.7383C0.410012 10.1114 1.12851 22.0596 13.232 28.1691ZM9.01101 11.9191L12.4505 15.1703L18.89 9.08342L21.011 11.0883L12.4505 19.1799L6.89001 13.924L9.01101 11.9191V11.9191Z" fill="#F404F9"/>
</svg>
